# xmcd CD database file
#
# Track frame offsets:
#	150
#	17866
#	36121
#	53535
#	73035
#	92177
#	118462
#	142399
#	165598
#	190019
#
# Disc length: 2766 seconds
#
# Revision: 8
# Processed by: cddbd v1.5.2PL0 Copyright (c) Steve Scherf et al.
# Submitted via: CDex 1.70beta3
#
DISCID=900acc0a
DTITLE=Voltage of Imagination - 空想活劇
DYEAR=2009
DGENRE=Pop
TTITLE0=MintJam  - Back-alley Spiders
TTITLE1=みとせのりこ - silence
TTITLE2=やなぎなぎ - Change
TTITLE3=茶太 - 青春∞
TTITLE4=空色絵本 - 土の雨
TTITLE5=霜月はるか - 旅の途中
TTITLE6=片霧烈火 - 異端狂謳、美喰樂。
TTITLE7=深水チエ - ひとひら
TTITLE8=Annabel - en las cuatro estaciones
TTITLE9=Cutie Pai - SIGNAL
EXTD=YEAR: 2009
EXTT0=
EXTT1=
EXTT2=
EXTT3=
EXTT4=
EXTT5=
EXTT6=
EXTT7=
EXTT8=
EXTT9=
PLAYORDER=
